<mxfile host="app.diagrams.net" modified="2024-03-16T10:36:59.775Z" agent="Mozilla/5.0 (Windows NT 10.0; Win64; x64) AppleWebKit/537.36 (KHTML, like Gecko) Chrome/122.0.0.0 Safari/537.36" etag="4I-OwXV-flam9naFQqiD" version="24.0.7" type="device">
  <diagram name="Page-1" id="pbuojX_7hKeUy6X0BVsx">
    <mxGraphModel dx="794" dy="454" grid="1" gridSize="10" guides="1" tooltips="1" connect="1" arrows="1" fold="1" page="1" pageScale="1" pageWidth="850" pageHeight="1100" math="0" shadow="0">
      <root>
        <mxCell id="0" />
        <mxCell id="1" parent="0" />
        <mxCell id="a7Gtyuu6S3KN_32vX5DZ-1" value="&lt;font style=&quot;font-size: 15px;&quot;&gt;TravelPackage&lt;/font&gt;" style="rounded=1;whiteSpace=wrap;html=1;" parent="1" vertex="1">
          <mxGeometry x="300" y="60" width="120" height="60" as="geometry" />
        </mxCell>
        <mxCell id="a7Gtyuu6S3KN_32vX5DZ-2" value="&lt;font style=&quot;font-size: 15px;&quot;&gt;Destination&lt;/font&gt;" style="rounded=1;whiteSpace=wrap;html=1;" parent="1" vertex="1">
          <mxGeometry x="300" y="160" width="120" height="60" as="geometry" />
        </mxCell>
        <mxCell id="a7Gtyuu6S3KN_32vX5DZ-3" value="&lt;font style=&quot;font-size: 15px;&quot;&gt;Activity&lt;/font&gt;" style="rounded=1;whiteSpace=wrap;html=1;" parent="1" vertex="1">
          <mxGeometry x="300" y="260" width="120" height="60" as="geometry" />
        </mxCell>
        <mxCell id="a7Gtyuu6S3KN_32vX5DZ-4" value="&lt;font style=&quot;font-size: 15px;&quot;&gt;Passenger&lt;/font&gt;" style="rounded=1;whiteSpace=wrap;html=1;" parent="1" vertex="1">
          <mxGeometry x="300" y="360" width="120" height="60" as="geometry" />
        </mxCell>
        <mxCell id="a7Gtyuu6S3KN_32vX5DZ-5" value="" style="endArrow=classic;html=1;rounded=0;" parent="1" edge="1">
          <mxGeometry width="50" height="50" relative="1" as="geometry">
            <mxPoint x="360" y="120" as="sourcePoint" />
            <mxPoint x="360" y="160" as="targetPoint" />
          </mxGeometry>
        </mxCell>
        <mxCell id="a7Gtyuu6S3KN_32vX5DZ-6" value="" style="endArrow=classic;html=1;rounded=0;" parent="1" edge="1">
          <mxGeometry width="50" height="50" relative="1" as="geometry">
            <mxPoint x="359.5" y="220" as="sourcePoint" />
            <mxPoint x="359.5" y="260" as="targetPoint" />
          </mxGeometry>
        </mxCell>
        <mxCell id="a7Gtyuu6S3KN_32vX5DZ-7" value="" style="endArrow=classic;html=1;rounded=0;" parent="1" edge="1">
          <mxGeometry width="50" height="50" relative="1" as="geometry">
            <mxPoint x="360" y="320" as="sourcePoint" />
            <mxPoint x="360" y="360" as="targetPoint" />
          </mxGeometry>
        </mxCell>
        <mxCell id="AwWcT_6uXxlog4wo0ZSs-1" value="&lt;b&gt;&lt;font style=&quot;font-size: 20px;&quot;&gt;BLOCK DIAGRAM&lt;/font&gt;&lt;/b&gt;" style="text;html=1;align=center;verticalAlign=middle;whiteSpace=wrap;rounded=0;" vertex="1" parent="1">
          <mxGeometry x="260" y="20" width="200" height="30" as="geometry" />
        </mxCell>
      </root>
    </mxGraphModel>
  </diagram>
</mxfile>
